<mxfile host="app.diagrams.net" modified="2022-12-04T22:54:17.688Z" agent="5.0 (Macintosh; Intel Mac OS X 10_15_7) AppleWebKit/537.36 (KHTML, like Gecko) Chrome/108.0.0.0 Safari/537.36" etag="W39Kj4T4s0RCyI86hR5b" version="20.6.0" type="github">
  <diagram id="C5RBs43oDa-KdzZeNtuy" name="Page-1">
    <mxGraphModel dx="1291" dy="849" grid="1" gridSize="10" guides="1" tooltips="1" connect="1" arrows="1" fold="1" page="1" pageScale="1" pageWidth="3300" pageHeight="4681" math="0" shadow="0">
      <root>
        <mxCell id="WIyWlLk6GJQsqaUBKTNV-0" />
        <mxCell id="WIyWlLk6GJQsqaUBKTNV-1" parent="WIyWlLk6GJQsqaUBKTNV-0" />
        <mxCell id="OverbrRECvq1KNkHKfa8-5" style="edgeStyle=orthogonalEdgeStyle;rounded=0;orthogonalLoop=1;jettySize=auto;html=1;exitX=0.5;exitY=1;exitDx=0;exitDy=0;entryX=0.5;entryY=0;entryDx=0;entryDy=0;fontSize=10;" parent="WIyWlLk6GJQsqaUBKTNV-1" source="WIyWlLk6GJQsqaUBKTNV-3" target="OverbrRECvq1KNkHKfa8-1" edge="1">
          <mxGeometry relative="1" as="geometry" />
        </mxCell>
        <mxCell id="WIyWlLk6GJQsqaUBKTNV-3" value="Ejecución de Script&lt;br&gt;&#39;Proyecto_Final&#39;&lt;br style=&quot;font-size: 10px;&quot;&gt;&#39;&lt;b&gt;Run&lt;/b&gt;&#39;" style="rounded=1;whiteSpace=wrap;html=1;fontSize=10;glass=0;strokeWidth=1;shadow=0;fillColor=#dae8fc;strokeColor=#6c8ebf;" parent="WIyWlLk6GJQsqaUBKTNV-1" vertex="1">
          <mxGeometry x="1084.8" y="420" width="120" height="50" as="geometry" />
        </mxCell>
        <mxCell id="lt5BsjwWGhVhC6ZBDZQn-1" value="" style="edgeStyle=orthogonalEdgeStyle;rounded=0;orthogonalLoop=1;jettySize=auto;html=1;" edge="1" parent="WIyWlLk6GJQsqaUBKTNV-1" source="OverbrRECvq1KNkHKfa8-1" target="lt5BsjwWGhVhC6ZBDZQn-0">
          <mxGeometry relative="1" as="geometry" />
        </mxCell>
        <mxCell id="OverbrRECvq1KNkHKfa8-1" value="Cierre de ventanas y&lt;br style=&quot;font-size: 10px;&quot;&gt;Ejecución de &#39;&lt;b&gt;adt.mat&lt;/b&gt;&#39;" style="rounded=1;whiteSpace=wrap;html=1;fontSize=10;fillColor=#dae8fc;strokeColor=#6c8ebf;" parent="WIyWlLk6GJQsqaUBKTNV-1" vertex="1">
          <mxGeometry x="1084.8" y="500" width="120" height="60" as="geometry" />
        </mxCell>
        <mxCell id="lt5BsjwWGhVhC6ZBDZQn-8" style="edgeStyle=orthogonalEdgeStyle;rounded=0;orthogonalLoop=1;jettySize=auto;html=1;" edge="1" parent="WIyWlLk6GJQsqaUBKTNV-1" source="OverbrRECvq1KNkHKfa8-2" target="lt5BsjwWGhVhC6ZBDZQn-7">
          <mxGeometry relative="1" as="geometry" />
        </mxCell>
        <mxCell id="lt5BsjwWGhVhC6ZBDZQn-18" style="edgeStyle=orthogonalEdgeStyle;rounded=0;orthogonalLoop=1;jettySize=auto;html=1;entryX=0.5;entryY=0;entryDx=0;entryDy=0;exitX=1;exitY=0.5;exitDx=0;exitDy=0;" edge="1" parent="WIyWlLk6GJQsqaUBKTNV-1" source="OverbrRECvq1KNkHKfa8-2" target="lt5BsjwWGhVhC6ZBDZQn-16">
          <mxGeometry relative="1" as="geometry">
            <mxPoint x="798" y="940" as="sourcePoint" />
            <Array as="points">
              <mxPoint x="1490" y="730" />
              <mxPoint x="1490" y="1030" />
              <mxPoint x="798" y="1030" />
            </Array>
          </mxGeometry>
        </mxCell>
        <mxCell id="OverbrRECvq1KNkHKfa8-2" value="Ejecución de &#39;&lt;b style=&quot;font-size: 10px;&quot;&gt;Script_main&#39;&lt;/b&gt;&lt;br style=&quot;font-size: 10px;&quot;&gt;&#39;Captura y Procesamiento de Imagenes&#39;" style="whiteSpace=wrap;html=1;rounded=1;fontSize=10;fillColor=#dae8fc;strokeColor=#6c8ebf;" parent="WIyWlLk6GJQsqaUBKTNV-1" vertex="1">
          <mxGeometry x="1064.8" y="700" width="160" height="60" as="geometry" />
        </mxCell>
        <mxCell id="OverbrRECvq1KNkHKfa8-9" value="" style="edgeStyle=orthogonalEdgeStyle;rounded=0;orthogonalLoop=1;jettySize=auto;html=1;fontSize=10;fillColor=#d5e8d4;strokeColor=#82b366;" parent="WIyWlLk6GJQsqaUBKTNV-1" source="OverbrRECvq1KNkHKfa8-6" target="OverbrRECvq1KNkHKfa8-8" edge="1">
          <mxGeometry relative="1" as="geometry" />
        </mxCell>
        <mxCell id="OverbrRECvq1KNkHKfa8-6" value="Conversión de imagen &lt;b&gt;rgb a escala de grises&lt;/b&gt;" style="whiteSpace=wrap;html=1;rounded=1;fontSize=10;fillColor=#d5e8d4;strokeColor=#82b366;" parent="WIyWlLk6GJQsqaUBKTNV-1" vertex="1">
          <mxGeometry x="910" y="1080" width="120" height="60" as="geometry" />
        </mxCell>
        <mxCell id="OverbrRECvq1KNkHKfa8-11" value="" style="edgeStyle=orthogonalEdgeStyle;rounded=0;orthogonalLoop=1;jettySize=auto;html=1;fontSize=10;fillColor=#d5e8d4;strokeColor=#82b366;" parent="WIyWlLk6GJQsqaUBKTNV-1" source="OverbrRECvq1KNkHKfa8-8" target="OverbrRECvq1KNkHKfa8-10" edge="1">
          <mxGeometry relative="1" as="geometry" />
        </mxCell>
        <mxCell id="OverbrRECvq1KNkHKfa8-8" value="Creación de &lt;b&gt;elemento morfológico estructurante&lt;/b&gt;:&lt;br style=&quot;font-size: 10px;&quot;&gt;diamante, 0" style="whiteSpace=wrap;html=1;rounded=1;fontSize=10;fillColor=#d5e8d4;strokeColor=#82b366;" parent="WIyWlLk6GJQsqaUBKTNV-1" vertex="1">
          <mxGeometry x="1085.1999999999998" y="1080" width="120" height="60" as="geometry" />
        </mxCell>
        <mxCell id="lt5BsjwWGhVhC6ZBDZQn-2" style="edgeStyle=orthogonalEdgeStyle;rounded=0;orthogonalLoop=1;jettySize=auto;html=1;exitX=1;exitY=0.5;exitDx=0;exitDy=0;entryX=0;entryY=0.5;entryDx=0;entryDy=0;fillColor=#d5e8d4;strokeColor=#82b366;" edge="1" parent="WIyWlLk6GJQsqaUBKTNV-1" source="OverbrRECvq1KNkHKfa8-10" target="OverbrRECvq1KNkHKfa8-14">
          <mxGeometry relative="1" as="geometry" />
        </mxCell>
        <mxCell id="OverbrRECvq1KNkHKfa8-10" value="Aplicación de &lt;b&gt;filtro de erosión&lt;/b&gt; con el elemento morfológico anterior." style="whiteSpace=wrap;html=1;rounded=1;fontSize=10;fillColor=#d5e8d4;strokeColor=#82b366;" parent="WIyWlLk6GJQsqaUBKTNV-1" vertex="1">
          <mxGeometry x="1259.9999999999998" y="1080" width="120" height="60" as="geometry" />
        </mxCell>
        <mxCell id="lt5BsjwWGhVhC6ZBDZQn-21" value="" style="edgeStyle=orthogonalEdgeStyle;rounded=0;orthogonalLoop=1;jettySize=auto;html=1;fillColor=#d5e8d4;strokeColor=#82b366;" edge="1" parent="WIyWlLk6GJQsqaUBKTNV-1" source="OverbrRECvq1KNkHKfa8-14" target="lt5BsjwWGhVhC6ZBDZQn-20">
          <mxGeometry relative="1" as="geometry" />
        </mxCell>
        <mxCell id="OverbrRECvq1KNkHKfa8-14" value="&lt;b&gt;Binarización&lt;/b&gt; de la imagén y posteriormente la aplicación del &lt;b&gt;complemento&lt;/b&gt;." style="whiteSpace=wrap;html=1;fontSize=10;rounded=1;fillColor=#d5e8d4;strokeColor=#82b366;" parent="WIyWlLk6GJQsqaUBKTNV-1" vertex="1">
          <mxGeometry x="1430.3999999999999" y="1080" width="120" height="60" as="geometry" />
        </mxCell>
        <mxCell id="OverbrRECvq1KNkHKfa8-24" value="&lt;h1&gt;Sección 1&lt;/h1&gt;&lt;p&gt;Ejecución y captura de Imagenes&lt;/p&gt;" style="text;html=1;strokeColor=#6c8ebf;fillColor=#dae8fc;spacing=5;spacingTop=-20;whiteSpace=wrap;overflow=hidden;rounded=0;fontFamily=Verdana;fontSize=10;" parent="WIyWlLk6GJQsqaUBKTNV-1" vertex="1">
          <mxGeometry x="1690" y="690" width="220" height="70" as="geometry" />
        </mxCell>
        <mxCell id="OverbrRECvq1KNkHKfa8-26" value="&lt;h1&gt;Sección 2&lt;/h1&gt;&lt;p&gt;Procesamiento de imagenes y aplicación de filtros&lt;/p&gt;" style="text;html=1;strokeColor=#82b366;fillColor=#d5e8d4;spacing=5;spacingTop=-20;whiteSpace=wrap;overflow=hidden;rounded=0;fontFamily=Verdana;fontSize=10;" parent="WIyWlLk6GJQsqaUBKTNV-1" vertex="1">
          <mxGeometry x="1679.6" y="1150" width="230.2" height="70" as="geometry" />
        </mxCell>
        <mxCell id="OverbrRECvq1KNkHKfa8-27" value="&lt;h1&gt;Sección 3&lt;/h1&gt;&lt;p&gt;Identificación de bordes, objetos y generación de propiedades de los mismos&lt;/p&gt;" style="text;html=1;strokeColor=#d79b00;fillColor=#ffe6cc;spacing=5;spacingTop=-20;whiteSpace=wrap;overflow=hidden;rounded=0;fontFamily=Verdana;fontSize=10;" parent="WIyWlLk6GJQsqaUBKTNV-1" vertex="1">
          <mxGeometry x="1679.8" y="1370" width="230" height="75" as="geometry" />
        </mxCell>
        <mxCell id="OverbrRECvq1KNkHKfa8-33" value="" style="endArrow=none;html=1;rounded=0;fontFamily=Verdana;fontSize=10;" parent="WIyWlLk6GJQsqaUBKTNV-1" edge="1">
          <mxGeometry width="50" height="50" relative="1" as="geometry">
            <mxPoint x="1655" y="3531" as="sourcePoint" />
            <mxPoint x="1655" y="471" as="targetPoint" />
          </mxGeometry>
        </mxCell>
        <mxCell id="OverbrRECvq1KNkHKfa8-42" value="&lt;h1&gt;Sección 4&lt;/h1&gt;&lt;p&gt;Proceso de identificación del tipo de carta.&lt;/p&gt;" style="text;html=1;strokeColor=#d6b656;fillColor=#fff2cc;spacing=5;spacingTop=-20;whiteSpace=wrap;overflow=hidden;rounded=0;fontFamily=Verdana;fontSize=10;" parent="WIyWlLk6GJQsqaUBKTNV-1" vertex="1">
          <mxGeometry x="1690" y="1770" width="230" height="75" as="geometry" />
        </mxCell>
        <mxCell id="OverbrRECvq1KNkHKfa8-47" value="" style="edgeStyle=orthogonalEdgeStyle;rounded=0;orthogonalLoop=1;jettySize=auto;html=1;fontFamily=Verdana;fontSize=9;fillColor=#fff2cc;strokeColor=#d6b656;" parent="WIyWlLk6GJQsqaUBKTNV-1" source="OverbrRECvq1KNkHKfa8-43" target="OverbrRECvq1KNkHKfa8-46" edge="1">
          <mxGeometry relative="1" as="geometry" />
        </mxCell>
        <mxCell id="OverbrRECvq1KNkHKfa8-43" value="Se obtiene el área del objeto 3: &#39;&lt;b&gt;area3&lt;/b&gt;&#39; &lt;br&gt;el &lt;b&gt;simbolo&lt;/b&gt; de la &lt;b&gt;carta&lt;/b&gt;" style="rounded=1;whiteSpace=wrap;html=1;fontFamily=Verdana;fontSize=10;fillColor=#fff2cc;strokeColor=#d6b656;" parent="WIyWlLk6GJQsqaUBKTNV-1" vertex="1">
          <mxGeometry x="1084.8" y="1640" width="120" height="60" as="geometry" />
        </mxCell>
        <mxCell id="OverbrRECvq1KNkHKfa8-49" style="edgeStyle=orthogonalEdgeStyle;rounded=0;orthogonalLoop=1;jettySize=auto;html=1;exitX=0;exitY=0.5;exitDx=0;exitDy=0;entryX=1;entryY=0.5;entryDx=0;entryDy=0;fontFamily=Verdana;fontSize=9;fillColor=#fff2cc;strokeColor=#d6b656;" parent="WIyWlLk6GJQsqaUBKTNV-1" source="OverbrRECvq1KNkHKfa8-46" target="OverbrRECvq1KNkHKfa8-50" edge="1">
          <mxGeometry relative="1" as="geometry">
            <mxPoint x="1009.8" y="1755" as="targetPoint" />
          </mxGeometry>
        </mxCell>
        <mxCell id="OverbrRECvq1KNkHKfa8-55" style="edgeStyle=orthogonalEdgeStyle;rounded=0;orthogonalLoop=1;jettySize=auto;html=1;exitX=0.25;exitY=1;exitDx=0;exitDy=0;entryX=0.5;entryY=0;entryDx=0;entryDy=0;fontFamily=Verdana;fontSize=7;fillColor=#fff2cc;strokeColor=#d6b656;" parent="WIyWlLk6GJQsqaUBKTNV-1" source="OverbrRECvq1KNkHKfa8-46" target="OverbrRECvq1KNkHKfa8-53" edge="1">
          <mxGeometry relative="1" as="geometry" />
        </mxCell>
        <mxCell id="OverbrRECvq1KNkHKfa8-61" style="edgeStyle=orthogonalEdgeStyle;rounded=0;orthogonalLoop=1;jettySize=auto;html=1;exitX=0.75;exitY=1;exitDx=0;exitDy=0;entryX=0.5;entryY=0;entryDx=0;entryDy=0;fontFamily=Verdana;fontSize=7;fillColor=#fff2cc;strokeColor=#d6b656;" parent="WIyWlLk6GJQsqaUBKTNV-1" source="OverbrRECvq1KNkHKfa8-46" target="OverbrRECvq1KNkHKfa8-59" edge="1">
          <mxGeometry relative="1" as="geometry" />
        </mxCell>
        <mxCell id="OverbrRECvq1KNkHKfa8-65" style="edgeStyle=orthogonalEdgeStyle;rounded=0;orthogonalLoop=1;jettySize=auto;html=1;exitX=1;exitY=0.5;exitDx=0;exitDy=0;fontFamily=Verdana;fontSize=7;fillColor=#fff2cc;strokeColor=#d6b656;" parent="WIyWlLk6GJQsqaUBKTNV-1" source="OverbrRECvq1KNkHKfa8-46" target="OverbrRECvq1KNkHKfa8-63" edge="1">
          <mxGeometry relative="1" as="geometry" />
        </mxCell>
        <mxCell id="OverbrRECvq1KNkHKfa8-46" value="&lt;b&gt;Comparación&lt;/b&gt; con un &lt;b&gt;rango&lt;/b&gt; &lt;b&gt;de&lt;/b&gt; &lt;b&gt;áreas&lt;/b&gt; para &lt;b&gt;identificar&lt;/b&gt; el &lt;b&gt;simbolo&lt;/b&gt; de la carta" style="whiteSpace=wrap;html=1;fontSize=10;fontFamily=Verdana;rounded=1;fillColor=#fff2cc;strokeColor=#d6b656;" parent="WIyWlLk6GJQsqaUBKTNV-1" vertex="1">
          <mxGeometry x="1084.8" y="1727.5" width="120" height="55" as="geometry" />
        </mxCell>
        <mxCell id="OverbrRECvq1KNkHKfa8-52" style="edgeStyle=orthogonalEdgeStyle;rounded=0;orthogonalLoop=1;jettySize=auto;html=1;exitX=0.5;exitY=1;exitDx=0;exitDy=0;entryX=0.5;entryY=0;entryDx=0;entryDy=0;fontFamily=Verdana;fontSize=7;fillColor=#fff2cc;strokeColor=#d6b656;" parent="WIyWlLk6GJQsqaUBKTNV-1" source="OverbrRECvq1KNkHKfa8-50" target="OverbrRECvq1KNkHKfa8-51" edge="1">
          <mxGeometry relative="1" as="geometry" />
        </mxCell>
        <mxCell id="OverbrRECvq1KNkHKfa8-50" value="&lt;font style=&quot;font-size: 8px;&quot;&gt;2600&lt;span style=&quot;color: rgb(32, 33, 36); font-family: arial, sans-serif; text-align: left; font-size: 8px;&quot;&gt;≤&lt;/span&gt;&lt;b&gt;area3&lt;/b&gt;&lt;span style=&quot;color: rgb(32, 33, 36); font-family: arial, sans-serif; text-align: left; font-size: 8px;&quot;&gt;≤&lt;/span&gt;2999&lt;/font&gt;" style="rhombus;whiteSpace=wrap;html=1;fontFamily=Verdana;fontSize=8;fillColor=#fff2cc;strokeColor=#d6b656;" parent="WIyWlLk6GJQsqaUBKTNV-1" vertex="1">
          <mxGeometry x="899.8" y="1712.5" width="90" height="85" as="geometry" />
        </mxCell>
        <mxCell id="OverbrRECvq1KNkHKfa8-71" style="edgeStyle=orthogonalEdgeStyle;rounded=0;orthogonalLoop=1;jettySize=auto;html=1;exitX=0.5;exitY=1;exitDx=0;exitDy=0;entryX=0;entryY=0.5;entryDx=0;entryDy=0;fontFamily=Verdana;fontSize=8;fillColor=#fff2cc;strokeColor=#d6b656;" parent="WIyWlLk6GJQsqaUBKTNV-1" source="OverbrRECvq1KNkHKfa8-51" target="OverbrRECvq1KNkHKfa8-70" edge="1">
          <mxGeometry relative="1" as="geometry" />
        </mxCell>
        <mxCell id="OverbrRECvq1KNkHKfa8-51" value="La carta es de &#39;Diamantes&#39;" style="whiteSpace=wrap;html=1;fontSize=10;fontFamily=Verdana;fillColor=#fff2cc;strokeColor=#d6b656;" parent="WIyWlLk6GJQsqaUBKTNV-1" vertex="1">
          <mxGeometry x="904.8" y="1930" width="80" height="50" as="geometry" />
        </mxCell>
        <mxCell id="OverbrRECvq1KNkHKfa8-57" style="edgeStyle=orthogonalEdgeStyle;rounded=0;orthogonalLoop=1;jettySize=auto;html=1;entryX=0.5;entryY=0;entryDx=0;entryDy=0;fontFamily=Verdana;fontSize=7;fillColor=#fff2cc;strokeColor=#d6b656;" parent="WIyWlLk6GJQsqaUBKTNV-1" source="OverbrRECvq1KNkHKfa8-53" target="OverbrRECvq1KNkHKfa8-56" edge="1">
          <mxGeometry relative="1" as="geometry" />
        </mxCell>
        <mxCell id="OverbrRECvq1KNkHKfa8-53" value="&lt;font style=&quot;font-size: 8px;&quot;&gt;3000&lt;span style=&quot;color: rgb(32, 33, 36); font-family: arial, sans-serif; text-align: left; font-size: 8px;&quot;&gt;≤&lt;/span&gt;&lt;b&gt;area3&lt;/b&gt;&lt;span style=&quot;color: rgb(32, 33, 36); font-family: arial, sans-serif; text-align: left; font-size: 8px;&quot;&gt;≤&lt;/span&gt;3330&lt;/font&gt;" style="rhombus;whiteSpace=wrap;html=1;fontFamily=Verdana;fontSize=8;fillColor=#fff2cc;strokeColor=#d6b656;" parent="WIyWlLk6GJQsqaUBKTNV-1" vertex="1">
          <mxGeometry x="1019.8" y="1820" width="90" height="90" as="geometry" />
        </mxCell>
        <mxCell id="OverbrRECvq1KNkHKfa8-72" style="edgeStyle=orthogonalEdgeStyle;rounded=0;orthogonalLoop=1;jettySize=auto;html=1;exitX=0.5;exitY=1;exitDx=0;exitDy=0;entryX=0;entryY=0.25;entryDx=0;entryDy=0;fontFamily=Verdana;fontSize=8;fillColor=#fff2cc;strokeColor=#d6b656;" parent="WIyWlLk6GJQsqaUBKTNV-1" source="OverbrRECvq1KNkHKfa8-56" target="OverbrRECvq1KNkHKfa8-70" edge="1">
          <mxGeometry relative="1" as="geometry" />
        </mxCell>
        <mxCell id="OverbrRECvq1KNkHKfa8-56" value="La carta es de &#39;Corazones&#39;" style="whiteSpace=wrap;html=1;fontSize=10;fontFamily=Verdana;fillColor=#fff2cc;strokeColor=#d6b656;" parent="WIyWlLk6GJQsqaUBKTNV-1" vertex="1">
          <mxGeometry x="1024.8" y="1930" width="80" height="50" as="geometry" />
        </mxCell>
        <mxCell id="OverbrRECvq1KNkHKfa8-58" style="edgeStyle=orthogonalEdgeStyle;rounded=0;orthogonalLoop=1;jettySize=auto;html=1;entryX=0.5;entryY=0;entryDx=0;entryDy=0;fontFamily=Verdana;fontSize=7;fillColor=#fff2cc;strokeColor=#d6b656;" parent="WIyWlLk6GJQsqaUBKTNV-1" source="OverbrRECvq1KNkHKfa8-59" target="OverbrRECvq1KNkHKfa8-60" edge="1">
          <mxGeometry relative="1" as="geometry" />
        </mxCell>
        <mxCell id="OverbrRECvq1KNkHKfa8-59" value="&lt;span style=&quot;font-size: 8px;&quot;&gt;3331&lt;/span&gt;&lt;span style=&quot;font-size: 8px; color: rgb(32, 33, 36); font-family: arial, sans-serif; text-align: left;&quot;&gt;≤&lt;/span&gt;&lt;b style=&quot;font-size: 8px;&quot;&gt;area3&lt;/b&gt;&lt;span style=&quot;font-size: 8px; color: rgb(32, 33, 36); font-family: arial, sans-serif; text-align: left;&quot;&gt;≤&lt;/span&gt;&lt;span style=&quot;font-size: 8px;&quot;&gt;3520&lt;/span&gt;" style="rhombus;whiteSpace=wrap;html=1;fontFamily=Verdana;fontSize=7;fillColor=#fff2cc;strokeColor=#d6b656;" parent="WIyWlLk6GJQsqaUBKTNV-1" vertex="1">
          <mxGeometry x="1179.8" y="1820" width="90" height="90" as="geometry" />
        </mxCell>
        <mxCell id="OverbrRECvq1KNkHKfa8-73" style="edgeStyle=orthogonalEdgeStyle;rounded=0;orthogonalLoop=1;jettySize=auto;html=1;exitX=0.5;exitY=1;exitDx=0;exitDy=0;entryX=1;entryY=0.25;entryDx=0;entryDy=0;fontFamily=Verdana;fontSize=8;fillColor=#fff2cc;strokeColor=#d6b656;" parent="WIyWlLk6GJQsqaUBKTNV-1" source="OverbrRECvq1KNkHKfa8-60" target="OverbrRECvq1KNkHKfa8-70" edge="1">
          <mxGeometry relative="1" as="geometry" />
        </mxCell>
        <mxCell id="OverbrRECvq1KNkHKfa8-60" value="La carta es de &#39;Treboles&#39;" style="whiteSpace=wrap;html=1;fontSize=10;fontFamily=Verdana;fillColor=#fff2cc;strokeColor=#d6b656;" parent="WIyWlLk6GJQsqaUBKTNV-1" vertex="1">
          <mxGeometry x="1184.8" y="1930" width="80" height="50" as="geometry" />
        </mxCell>
        <mxCell id="OverbrRECvq1KNkHKfa8-62" style="edgeStyle=orthogonalEdgeStyle;rounded=0;orthogonalLoop=1;jettySize=auto;html=1;exitX=0.5;exitY=1;exitDx=0;exitDy=0;entryX=0.5;entryY=0;entryDx=0;entryDy=0;fontFamily=Verdana;fontSize=7;fillColor=#fff2cc;strokeColor=#d6b656;" parent="WIyWlLk6GJQsqaUBKTNV-1" source="OverbrRECvq1KNkHKfa8-63" target="OverbrRECvq1KNkHKfa8-64" edge="1">
          <mxGeometry relative="1" as="geometry" />
        </mxCell>
        <mxCell id="OverbrRECvq1KNkHKfa8-63" value="&lt;span style=&quot;font-size: 8px;&quot;&gt;3521&lt;/span&gt;&lt;span style=&quot;font-size: 8px; color: rgb(32, 33, 36); font-family: arial, sans-serif; text-align: left;&quot;&gt;≤&lt;/span&gt;&lt;b style=&quot;font-size: 8px;&quot;&gt;area3&lt;/b&gt;&lt;span style=&quot;font-size: 8px; color: rgb(32, 33, 36); font-family: arial, sans-serif; text-align: left;&quot;&gt;≤&lt;/span&gt;&lt;span style=&quot;font-size: 8px;&quot;&gt;4500&lt;/span&gt;" style="rhombus;whiteSpace=wrap;html=1;fontFamily=Verdana;fontSize=7;fillColor=#fff2cc;strokeColor=#d6b656;" parent="WIyWlLk6GJQsqaUBKTNV-1" vertex="1">
          <mxGeometry x="1309.8" y="1712.5" width="90" height="85" as="geometry" />
        </mxCell>
        <mxCell id="OverbrRECvq1KNkHKfa8-74" style="edgeStyle=orthogonalEdgeStyle;rounded=0;orthogonalLoop=1;jettySize=auto;html=1;exitX=0.5;exitY=1;exitDx=0;exitDy=0;entryX=1;entryY=0.5;entryDx=0;entryDy=0;fontFamily=Verdana;fontSize=8;fillColor=#fff2cc;strokeColor=#d6b656;" parent="WIyWlLk6GJQsqaUBKTNV-1" source="OverbrRECvq1KNkHKfa8-64" target="OverbrRECvq1KNkHKfa8-70" edge="1">
          <mxGeometry relative="1" as="geometry" />
        </mxCell>
        <mxCell id="OverbrRECvq1KNkHKfa8-64" value="La carta es de &#39;Espadas&#39;" style="whiteSpace=wrap;html=1;fontSize=10;fontFamily=Verdana;fillColor=#fff2cc;strokeColor=#d6b656;" parent="WIyWlLk6GJQsqaUBKTNV-1" vertex="1">
          <mxGeometry x="1314.8" y="1930" width="80" height="50" as="geometry" />
        </mxCell>
        <mxCell id="OverbrRECvq1KNkHKfa8-78" value="" style="edgeStyle=orthogonalEdgeStyle;rounded=0;orthogonalLoop=1;jettySize=auto;html=1;fontFamily=Verdana;fontSize=8;" parent="WIyWlLk6GJQsqaUBKTNV-1" source="OverbrRECvq1KNkHKfa8-70" target="OverbrRECvq1KNkHKfa8-77" edge="1">
          <mxGeometry relative="1" as="geometry" />
        </mxCell>
        <mxCell id="OverbrRECvq1KNkHKfa8-113" style="edgeStyle=orthogonalEdgeStyle;rounded=0;orthogonalLoop=1;jettySize=auto;html=1;exitX=0;exitY=0.75;exitDx=0;exitDy=0;fontFamily=Verdana;fontSize=8;entryX=0;entryY=0.5;entryDx=0;entryDy=0;" parent="WIyWlLk6GJQsqaUBKTNV-1" source="OverbrRECvq1KNkHKfa8-70" target="OverbrRECvq1KNkHKfa8-110" edge="1">
          <mxGeometry relative="1" as="geometry">
            <Array as="points">
              <mxPoint x="680" y="2085" />
              <mxPoint x="680" y="2908" />
            </Array>
          </mxGeometry>
        </mxCell>
        <mxCell id="OverbrRECvq1KNkHKfa8-115" value="Símbolo de Carta" style="edgeLabel;html=1;align=center;verticalAlign=middle;resizable=0;points=[];fontSize=8;fontFamily=Verdana;" parent="OverbrRECvq1KNkHKfa8-113" vertex="1" connectable="0">
          <mxGeometry x="0.8498" y="-1" relative="1" as="geometry">
            <mxPoint x="15" y="-2" as="offset" />
          </mxGeometry>
        </mxCell>
        <mxCell id="OverbrRECvq1KNkHKfa8-143" style="edgeStyle=orthogonalEdgeStyle;rounded=0;orthogonalLoop=1;jettySize=auto;html=1;exitX=1;exitY=0.75;exitDx=0;exitDy=0;fontFamily=Verdana;fontSize=8;entryX=1;entryY=0.5;entryDx=0;entryDy=0;" parent="WIyWlLk6GJQsqaUBKTNV-1" source="OverbrRECvq1KNkHKfa8-70" target="OverbrRECvq1KNkHKfa8-135" edge="1">
          <mxGeometry relative="1" as="geometry">
            <Array as="points">
              <mxPoint x="1610" y="2085" />
              <mxPoint x="1610" y="2908" />
            </Array>
          </mxGeometry>
        </mxCell>
        <mxCell id="OverbrRECvq1KNkHKfa8-144" value="Símbolo de la carta" style="edgeLabel;html=1;align=center;verticalAlign=middle;resizable=0;points=[];fontSize=8;fontFamily=Verdana;" parent="OverbrRECvq1KNkHKfa8-143" vertex="1" connectable="0">
          <mxGeometry x="0.9021" y="2" relative="1" as="geometry">
            <mxPoint y="-3" as="offset" />
          </mxGeometry>
        </mxCell>
        <mxCell id="OverbrRECvq1KNkHKfa8-70" value="Restulado es almacenado en variable: &#39;&lt;b&gt;simbolo&lt;/b&gt;&#39;" style="rounded=1;whiteSpace=wrap;html=1;fontFamily=Verdana;fontSize=8;fillColor=#fff2cc;strokeColor=#d6b656;" parent="WIyWlLk6GJQsqaUBKTNV-1" vertex="1">
          <mxGeometry x="1084.8" y="2040" width="120" height="60" as="geometry" />
        </mxCell>
        <mxCell id="OverbrRECvq1KNkHKfa8-80" value="" style="edgeStyle=orthogonalEdgeStyle;rounded=0;orthogonalLoop=1;jettySize=auto;html=1;fontFamily=Verdana;fontSize=9;fillColor=#f8cecc;strokeColor=#b85450;" parent="WIyWlLk6GJQsqaUBKTNV-1" source="OverbrRECvq1KNkHKfa8-77" target="OverbrRECvq1KNkHKfa8-79" edge="1">
          <mxGeometry relative="1" as="geometry" />
        </mxCell>
        <mxCell id="OverbrRECvq1KNkHKfa8-86" style="edgeStyle=orthogonalEdgeStyle;rounded=0;orthogonalLoop=1;jettySize=auto;html=1;exitX=1;exitY=0.5;exitDx=0;exitDy=0;entryX=0;entryY=0.5;entryDx=0;entryDy=0;fontFamily=Verdana;fontSize=8;fillColor=#f8cecc;strokeColor=#b85450;" parent="WIyWlLk6GJQsqaUBKTNV-1" source="OverbrRECvq1KNkHKfa8-77" target="OverbrRECvq1KNkHKfa8-84" edge="1">
          <mxGeometry relative="1" as="geometry" />
        </mxCell>
        <mxCell id="OverbrRECvq1KNkHKfa8-77" value="&lt;b style=&quot;font-size: 9px;&quot;&gt;Identificación&lt;/b&gt; del &lt;b style=&quot;font-size: 9px;&quot;&gt;número&lt;/b&gt; de la &lt;b style=&quot;font-size: 9px;&quot;&gt;carta &lt;/b&gt;en base al &lt;b&gt;numero&lt;/b&gt; de &lt;b&gt;objetos&lt;/b&gt; encontrados en la &lt;b&gt;carta&lt;/b&gt;" style="whiteSpace=wrap;html=1;fontSize=9;fontFamily=Verdana;rounded=1;fillColor=#f8cecc;strokeColor=#b85450;" parent="WIyWlLk6GJQsqaUBKTNV-1" vertex="1">
          <mxGeometry x="1084.8" y="2267.5" width="120" height="60" as="geometry" />
        </mxCell>
        <mxCell id="OverbrRECvq1KNkHKfa8-82" value="" style="edgeStyle=orthogonalEdgeStyle;rounded=0;orthogonalLoop=1;jettySize=auto;html=1;fontFamily=Verdana;fontSize=8;fillColor=#f8cecc;strokeColor=#b85450;" parent="WIyWlLk6GJQsqaUBKTNV-1" source="OverbrRECvq1KNkHKfa8-79" target="OverbrRECvq1KNkHKfa8-81" edge="1">
          <mxGeometry relative="1" as="geometry" />
        </mxCell>
        <mxCell id="OverbrRECvq1KNkHKfa8-79" value="&lt;font style=&quot;font-size: 8px;&quot;&gt;Si &lt;br&gt;&lt;/font&gt;&lt;div style=&quot;&quot;&gt;&lt;font face=&quot;arial, sans-serif&quot; color=&quot;#202124&quot;&gt;&lt;span style=&quot;font-size: 8px;&quot;&gt;num ≤ 17 &amp;amp;&amp;amp;&amp;nbsp;&lt;/span&gt;&lt;/font&gt;&lt;br&gt;&lt;/div&gt;&lt;div style=&quot;&quot;&gt;&lt;font face=&quot;arial, sans-serif&quot; color=&quot;#202124&quot;&gt;&lt;span style=&quot;font-size: 8px;&quot;&gt;num ≤ 5&lt;/span&gt;&lt;/font&gt;&lt;br&gt;&lt;/div&gt;" style="rhombus;whiteSpace=wrap;html=1;fontSize=9;fontFamily=Verdana;rounded=1;align=center;fillColor=#f8cecc;strokeColor=#b85450;" parent="WIyWlLk6GJQsqaUBKTNV-1" vertex="1">
          <mxGeometry x="845" y="2247.5" width="105" height="100" as="geometry" />
        </mxCell>
        <mxCell id="OverbrRECvq1KNkHKfa8-88" value="" style="edgeStyle=orthogonalEdgeStyle;rounded=0;orthogonalLoop=1;jettySize=auto;html=1;fontFamily=Verdana;fontSize=8;fillColor=#f8cecc;strokeColor=#b85450;" parent="WIyWlLk6GJQsqaUBKTNV-1" source="OverbrRECvq1KNkHKfa8-81" target="OverbrRECvq1KNkHKfa8-87" edge="1">
          <mxGeometry relative="1" as="geometry" />
        </mxCell>
        <mxCell id="OverbrRECvq1KNkHKfa8-81" value="Ejecutar &lt;b&gt;Script1&lt;/b&gt;: Reconocimiento de cartas del 1 al 10." style="whiteSpace=wrap;html=1;fontSize=9;fontFamily=Verdana;rounded=1;fillColor=#f8cecc;strokeColor=#b85450;" parent="WIyWlLk6GJQsqaUBKTNV-1" vertex="1">
          <mxGeometry x="837.5" y="2377.5" width="120" height="60" as="geometry" />
        </mxCell>
        <mxCell id="OverbrRECvq1KNkHKfa8-83" value="" style="edgeStyle=orthogonalEdgeStyle;rounded=0;orthogonalLoop=1;jettySize=auto;html=1;fontFamily=Verdana;fontSize=8;fillColor=#f8cecc;strokeColor=#b85450;" parent="WIyWlLk6GJQsqaUBKTNV-1" source="OverbrRECvq1KNkHKfa8-84" target="OverbrRECvq1KNkHKfa8-85" edge="1">
          <mxGeometry relative="1" as="geometry" />
        </mxCell>
        <mxCell id="OverbrRECvq1KNkHKfa8-84" value="&lt;span style=&quot;font-size: 8px;&quot;&gt;Else&lt;/span&gt;&lt;br&gt;&lt;span style=&quot;font-size: 8px;&quot;&gt;num &amp;lt; 17&lt;/span&gt;" style="rhombus;whiteSpace=wrap;html=1;fontSize=9;fontFamily=Verdana;rounded=1;align=center;fillColor=#f8cecc;strokeColor=#b85450;" parent="WIyWlLk6GJQsqaUBKTNV-1" vertex="1">
          <mxGeometry x="1337.3" y="2247.5" width="105" height="100" as="geometry" />
        </mxCell>
        <mxCell id="OverbrRECvq1KNkHKfa8-122" style="edgeStyle=orthogonalEdgeStyle;rounded=0;orthogonalLoop=1;jettySize=auto;html=1;entryX=0.5;entryY=0;entryDx=0;entryDy=0;fontFamily=Verdana;fontSize=8;fillColor=#f8cecc;strokeColor=#b85450;" parent="WIyWlLk6GJQsqaUBKTNV-1" source="OverbrRECvq1KNkHKfa8-85" target="OverbrRECvq1KNkHKfa8-121" edge="1">
          <mxGeometry relative="1" as="geometry" />
        </mxCell>
        <mxCell id="OverbrRECvq1KNkHKfa8-85" value="Ejecutar &lt;b&gt;Script2&lt;/b&gt;: Reconocimiento de cartas J, Q y K." style="whiteSpace=wrap;html=1;fontSize=9;fontFamily=Verdana;rounded=1;fillColor=#f8cecc;strokeColor=#b85450;" parent="WIyWlLk6GJQsqaUBKTNV-1" vertex="1">
          <mxGeometry x="1329.8" y="2377.5" width="120" height="60" as="geometry" />
        </mxCell>
        <mxCell id="OverbrRECvq1KNkHKfa8-90" value="" style="edgeStyle=orthogonalEdgeStyle;rounded=0;orthogonalLoop=1;jettySize=auto;html=1;fontFamily=Verdana;fontSize=8;fillColor=#f8cecc;strokeColor=#b85450;" parent="WIyWlLk6GJQsqaUBKTNV-1" source="OverbrRECvq1KNkHKfa8-87" target="OverbrRECvq1KNkHKfa8-89" edge="1">
          <mxGeometry relative="1" as="geometry" />
        </mxCell>
        <mxCell id="OverbrRECvq1KNkHKfa8-96" value="" style="edgeStyle=orthogonalEdgeStyle;rounded=0;orthogonalLoop=1;jettySize=auto;html=1;fontFamily=Verdana;fontSize=8;fillColor=#f8cecc;strokeColor=#b85450;" parent="WIyWlLk6GJQsqaUBKTNV-1" source="OverbrRECvq1KNkHKfa8-87" target="OverbrRECvq1KNkHKfa8-95" edge="1">
          <mxGeometry relative="1" as="geometry" />
        </mxCell>
        <mxCell id="OverbrRECvq1KNkHKfa8-100" value="" style="edgeStyle=orthogonalEdgeStyle;rounded=0;orthogonalLoop=1;jettySize=auto;html=1;fontFamily=Verdana;fontSize=8;fillColor=#f8cecc;strokeColor=#b85450;" parent="WIyWlLk6GJQsqaUBKTNV-1" source="OverbrRECvq1KNkHKfa8-87" target="OverbrRECvq1KNkHKfa8-99" edge="1">
          <mxGeometry relative="1" as="geometry" />
        </mxCell>
        <mxCell id="OverbrRECvq1KNkHKfa8-87" value="&lt;b&gt;Identificación&lt;/b&gt; de &lt;b&gt;Cartas&lt;/b&gt; del &lt;b&gt;1 al 10&lt;/b&gt;&lt;br&gt;variable: &#39;&lt;b&gt;ncarta&lt;/b&gt;&#39;" style="whiteSpace=wrap;html=1;fontSize=9;fontFamily=Verdana;rounded=1;fillColor=#f8cecc;strokeColor=#b85450;" parent="WIyWlLk6GJQsqaUBKTNV-1" vertex="1">
          <mxGeometry x="837.5" y="2467.5" width="120" height="60" as="geometry" />
        </mxCell>
        <mxCell id="OverbrRECvq1KNkHKfa8-92" value="" style="edgeStyle=orthogonalEdgeStyle;rounded=0;orthogonalLoop=1;jettySize=auto;html=1;fontFamily=Verdana;fontSize=8;fillColor=#f8cecc;strokeColor=#b85450;" parent="WIyWlLk6GJQsqaUBKTNV-1" source="OverbrRECvq1KNkHKfa8-89" target="OverbrRECvq1KNkHKfa8-91" edge="1">
          <mxGeometry relative="1" as="geometry" />
        </mxCell>
        <mxCell id="OverbrRECvq1KNkHKfa8-89" value="&lt;font style=&quot;font-size: 8px;&quot;&gt;Si&lt;br&gt;&lt;/font&gt;&lt;div&gt;&lt;font face=&quot;arial, sans-serif&quot; color=&quot;#202124&quot;&gt;&lt;span style=&quot;font-size: 8px;&quot;&gt;ncarta = 1&lt;/span&gt;&lt;/font&gt;&lt;/div&gt;" style="rhombus;whiteSpace=wrap;html=1;fontSize=9;fontFamily=Verdana;rounded=1;fillColor=#f8cecc;strokeColor=#b85450;" parent="WIyWlLk6GJQsqaUBKTNV-1" vertex="1">
          <mxGeometry x="720" y="2457.5" width="80" height="80" as="geometry" />
        </mxCell>
        <mxCell id="OverbrRECvq1KNkHKfa8-105" style="edgeStyle=orthogonalEdgeStyle;rounded=0;orthogonalLoop=1;jettySize=auto;html=1;entryX=0;entryY=0.5;entryDx=0;entryDy=0;fontFamily=Verdana;fontSize=8;exitX=0.5;exitY=1;exitDx=0;exitDy=0;fillColor=#f8cecc;strokeColor=#b85450;" parent="WIyWlLk6GJQsqaUBKTNV-1" source="OverbrRECvq1KNkHKfa8-91" target="OverbrRECvq1KNkHKfa8-103" edge="1">
          <mxGeometry relative="1" as="geometry" />
        </mxCell>
        <mxCell id="OverbrRECvq1KNkHKfa8-91" value="As" style="whiteSpace=wrap;html=1;fontSize=9;fontFamily=Verdana;rounded=1;fillColor=#f8cecc;strokeColor=#b85450;" parent="WIyWlLk6GJQsqaUBKTNV-1" vertex="1">
          <mxGeometry x="700" y="2567.5" width="120" height="60" as="geometry" />
        </mxCell>
        <mxCell id="OverbrRECvq1KNkHKfa8-98" value="" style="edgeStyle=orthogonalEdgeStyle;rounded=0;orthogonalLoop=1;jettySize=auto;html=1;fontFamily=Verdana;fontSize=8;fillColor=#f8cecc;strokeColor=#b85450;" parent="WIyWlLk6GJQsqaUBKTNV-1" source="OverbrRECvq1KNkHKfa8-95" target="OverbrRECvq1KNkHKfa8-97" edge="1">
          <mxGeometry relative="1" as="geometry" />
        </mxCell>
        <mxCell id="OverbrRECvq1KNkHKfa8-95" value="&lt;font style=&quot;font-size: 8px;&quot;&gt;Si&lt;br&gt;&lt;/font&gt;&lt;div&gt;&lt;font face=&quot;arial, sans-serif&quot; color=&quot;#202124&quot;&gt;&lt;span style=&quot;font-size: 8px;&quot;&gt;ncarta = 12&lt;/span&gt;&lt;/font&gt;&lt;/div&gt;" style="rhombus;whiteSpace=wrap;html=1;fontSize=9;fontFamily=Verdana;rounded=1;fillColor=#f8cecc;strokeColor=#b85450;" parent="WIyWlLk6GJQsqaUBKTNV-1" vertex="1">
          <mxGeometry x="995.1999999999999" y="2457.5" width="80" height="80" as="geometry" />
        </mxCell>
        <mxCell id="OverbrRECvq1KNkHKfa8-106" style="edgeStyle=orthogonalEdgeStyle;rounded=0;orthogonalLoop=1;jettySize=auto;html=1;exitX=0.5;exitY=1;exitDx=0;exitDy=0;entryX=1;entryY=0.5;entryDx=0;entryDy=0;fontFamily=Verdana;fontSize=8;fillColor=#f8cecc;strokeColor=#b85450;" parent="WIyWlLk6GJQsqaUBKTNV-1" source="OverbrRECvq1KNkHKfa8-97" target="OverbrRECvq1KNkHKfa8-103" edge="1">
          <mxGeometry relative="1" as="geometry" />
        </mxCell>
        <mxCell id="OverbrRECvq1KNkHKfa8-97" value="10" style="whiteSpace=wrap;html=1;fontSize=9;fontFamily=Verdana;rounded=1;fillColor=#f8cecc;strokeColor=#b85450;" parent="WIyWlLk6GJQsqaUBKTNV-1" vertex="1">
          <mxGeometry x="975.1999999999999" y="2567.5" width="120" height="60" as="geometry" />
        </mxCell>
        <mxCell id="OverbrRECvq1KNkHKfa8-102" value="" style="edgeStyle=orthogonalEdgeStyle;rounded=0;orthogonalLoop=1;jettySize=auto;html=1;fontFamily=Verdana;fontSize=8;fillColor=#f8cecc;strokeColor=#b85450;" parent="WIyWlLk6GJQsqaUBKTNV-1" source="OverbrRECvq1KNkHKfa8-99" target="OverbrRECvq1KNkHKfa8-101" edge="1">
          <mxGeometry relative="1" as="geometry" />
        </mxCell>
        <mxCell id="OverbrRECvq1KNkHKfa8-99" value="&lt;font style=&quot;font-size: 8px;&quot;&gt;Si&lt;br&gt;&lt;/font&gt;&lt;div&gt;&lt;font face=&quot;arial, sans-serif&quot; color=&quot;#202124&quot;&gt;&lt;span style=&quot;font-size: 8px;&quot;&gt;1 &amp;lt; ncarta &amp;lt; 12&lt;/span&gt;&lt;/font&gt;&lt;br&gt;&lt;/div&gt;" style="rhombus;whiteSpace=wrap;html=1;fontSize=9;fontFamily=Verdana;rounded=1;fillColor=#f8cecc;strokeColor=#b85450;" parent="WIyWlLk6GJQsqaUBKTNV-1" vertex="1">
          <mxGeometry x="857.5" y="2567.5" width="80" height="80" as="geometry" />
        </mxCell>
        <mxCell id="OverbrRECvq1KNkHKfa8-104" value="" style="edgeStyle=orthogonalEdgeStyle;rounded=0;orthogonalLoop=1;jettySize=auto;html=1;fontFamily=Verdana;fontSize=8;fillColor=#f8cecc;strokeColor=#b85450;" parent="WIyWlLk6GJQsqaUBKTNV-1" source="OverbrRECvq1KNkHKfa8-101" target="OverbrRECvq1KNkHKfa8-103" edge="1">
          <mxGeometry relative="1" as="geometry" />
        </mxCell>
        <mxCell id="OverbrRECvq1KNkHKfa8-101" value="Resultado de la carta entre el 2 y 9" style="whiteSpace=wrap;html=1;fontSize=9;fontFamily=Verdana;rounded=1;fillColor=#f8cecc;strokeColor=#b85450;" parent="WIyWlLk6GJQsqaUBKTNV-1" vertex="1">
          <mxGeometry x="837.5" y="2667.5" width="120" height="60" as="geometry" />
        </mxCell>
        <mxCell id="OverbrRECvq1KNkHKfa8-111" value="" style="edgeStyle=orthogonalEdgeStyle;rounded=0;orthogonalLoop=1;jettySize=auto;html=1;fontFamily=Verdana;fontSize=8;" parent="WIyWlLk6GJQsqaUBKTNV-1" source="OverbrRECvq1KNkHKfa8-103" target="OverbrRECvq1KNkHKfa8-110" edge="1">
          <mxGeometry relative="1" as="geometry" />
        </mxCell>
        <mxCell id="OverbrRECvq1KNkHKfa8-114" value="Número de la carta" style="edgeLabel;html=1;align=center;verticalAlign=middle;resizable=0;points=[];fontSize=8;fontFamily=Verdana;" parent="OverbrRECvq1KNkHKfa8-111" vertex="1" connectable="0">
          <mxGeometry x="-0.08" y="1" relative="1" as="geometry">
            <mxPoint as="offset" />
          </mxGeometry>
        </mxCell>
        <mxCell id="OverbrRECvq1KNkHKfa8-103" value="Resultado almacenado en la variable: &#39;&lt;b&gt;ncarta&lt;/b&gt;&#39;" style="whiteSpace=wrap;html=1;fontSize=9;fontFamily=Verdana;rounded=1;fillColor=#f8cecc;strokeColor=#b85450;" parent="WIyWlLk6GJQsqaUBKTNV-1" vertex="1">
          <mxGeometry x="837.5" y="2757.5" width="120" height="60" as="geometry" />
        </mxCell>
        <mxCell id="OverbrRECvq1KNkHKfa8-117" value="" style="edgeStyle=orthogonalEdgeStyle;rounded=0;orthogonalLoop=1;jettySize=auto;html=1;fontFamily=Verdana;fontSize=8;" parent="WIyWlLk6GJQsqaUBKTNV-1" source="OverbrRECvq1KNkHKfa8-110" target="OverbrRECvq1KNkHKfa8-116" edge="1">
          <mxGeometry relative="1" as="geometry" />
        </mxCell>
        <mxCell id="OverbrRECvq1KNkHKfa8-110" value="Concatenar resultado en variable &#39;Resultado&#39;" style="shape=hexagon;perimeter=hexagonPerimeter2;whiteSpace=wrap;html=1;fixedSize=1;fontSize=9;fontFamily=Verdana;rounded=1;fillColor=#e1d5e7;strokeColor=#9673a6;" parent="WIyWlLk6GJQsqaUBKTNV-1" vertex="1">
          <mxGeometry x="837.5" y="2867.5" width="120" height="80" as="geometry" />
        </mxCell>
        <mxCell id="lt5BsjwWGhVhC6ZBDZQn-62" style="edgeStyle=orthogonalEdgeStyle;rounded=0;orthogonalLoop=1;jettySize=auto;html=1;exitX=0.5;exitY=1;exitDx=0;exitDy=0;entryX=1;entryY=0.5;entryDx=0;entryDy=0;" edge="1" parent="WIyWlLk6GJQsqaUBKTNV-1" source="OverbrRECvq1KNkHKfa8-116" target="lt5BsjwWGhVhC6ZBDZQn-52">
          <mxGeometry relative="1" as="geometry">
            <Array as="points">
              <mxPoint x="898" y="3090" />
              <mxPoint x="1530" y="3090" />
              <mxPoint x="1530" y="3330" />
            </Array>
          </mxGeometry>
        </mxCell>
        <mxCell id="lt5BsjwWGhVhC6ZBDZQn-70" style="edgeStyle=orthogonalEdgeStyle;rounded=0;orthogonalLoop=1;jettySize=auto;html=1;exitX=0.5;exitY=1;exitDx=0;exitDy=0;entryX=1;entryY=0.5;entryDx=0;entryDy=0;" edge="1" parent="WIyWlLk6GJQsqaUBKTNV-1" source="OverbrRECvq1KNkHKfa8-116" target="lt5BsjwWGhVhC6ZBDZQn-7">
          <mxGeometry relative="1" as="geometry">
            <mxPoint x="620" y="870" as="targetPoint" />
            <Array as="points">
              <mxPoint x="898" y="3090" />
              <mxPoint x="650" y="3090" />
              <mxPoint x="650" y="980" />
              <mxPoint x="1270" y="980" />
              <mxPoint x="1270" y="820" />
            </Array>
          </mxGeometry>
        </mxCell>
        <mxCell id="lt5BsjwWGhVhC6ZBDZQn-71" value="Resultados" style="edgeLabel;html=1;align=center;verticalAlign=middle;resizable=0;points=[];" vertex="1" connectable="0" parent="lt5BsjwWGhVhC6ZBDZQn-70">
          <mxGeometry x="0.1579" y="-3" relative="1" as="geometry">
            <mxPoint as="offset" />
          </mxGeometry>
        </mxCell>
        <mxCell id="OverbrRECvq1KNkHKfa8-116" value="Resultado = [ &lt;b&gt;ncarta&lt;/b&gt;, &#39; de &#39;, &#39;&lt;b&gt;simbolo&lt;/b&gt;]&lt;br&gt;&lt;br&gt;Ejemplo:&lt;br&gt;&#39;&lt;b&gt;As&lt;/b&gt;&amp;nbsp;de &lt;b&gt;Corazones&lt;/b&gt;&#39;" style="whiteSpace=wrap;html=1;fontSize=9;fontFamily=Verdana;rounded=1;fillColor=#e1d5e7;strokeColor=#9673a6;" parent="WIyWlLk6GJQsqaUBKTNV-1" vertex="1">
          <mxGeometry x="797.5" y="3000" width="200" height="60" as="geometry" />
        </mxCell>
        <mxCell id="OverbrRECvq1KNkHKfa8-124" value="" style="edgeStyle=orthogonalEdgeStyle;rounded=0;orthogonalLoop=1;jettySize=auto;html=1;fontFamily=Verdana;fontSize=8;fillColor=#f8cecc;strokeColor=#b85450;" parent="WIyWlLk6GJQsqaUBKTNV-1" source="OverbrRECvq1KNkHKfa8-121" target="OverbrRECvq1KNkHKfa8-123" edge="1">
          <mxGeometry relative="1" as="geometry" />
        </mxCell>
        <mxCell id="OverbrRECvq1KNkHKfa8-128" value="" style="edgeStyle=orthogonalEdgeStyle;rounded=0;orthogonalLoop=1;jettySize=auto;html=1;fontFamily=Verdana;fontSize=8;fillColor=#f8cecc;strokeColor=#b85450;" parent="WIyWlLk6GJQsqaUBKTNV-1" source="OverbrRECvq1KNkHKfa8-121" target="OverbrRECvq1KNkHKfa8-127" edge="1">
          <mxGeometry relative="1" as="geometry" />
        </mxCell>
        <mxCell id="OverbrRECvq1KNkHKfa8-132" value="" style="edgeStyle=orthogonalEdgeStyle;rounded=0;orthogonalLoop=1;jettySize=auto;html=1;fontFamily=Verdana;fontSize=8;fillColor=#f8cecc;strokeColor=#b85450;" parent="WIyWlLk6GJQsqaUBKTNV-1" source="OverbrRECvq1KNkHKfa8-121" target="OverbrRECvq1KNkHKfa8-131" edge="1">
          <mxGeometry relative="1" as="geometry" />
        </mxCell>
        <mxCell id="OverbrRECvq1KNkHKfa8-121" value="&lt;b&gt;Obtener&lt;/b&gt; el área de la letra: &#39;&lt;b&gt;area2&lt;/b&gt;&#39;. Obtener EulerNumber de la letra: &#39;&lt;b&gt;numEuler&lt;/b&gt;&#39;" style="whiteSpace=wrap;html=1;fontSize=9;fontFamily=Verdana;rounded=1;fillColor=#f8cecc;strokeColor=#b85450;" parent="WIyWlLk6GJQsqaUBKTNV-1" vertex="1">
          <mxGeometry x="1329.8" y="2467.5" width="120" height="60" as="geometry" />
        </mxCell>
        <mxCell id="OverbrRECvq1KNkHKfa8-126" value="" style="edgeStyle=orthogonalEdgeStyle;rounded=0;orthogonalLoop=1;jettySize=auto;html=1;fontFamily=Verdana;fontSize=8;fillColor=#f8cecc;strokeColor=#b85450;" parent="WIyWlLk6GJQsqaUBKTNV-1" source="OverbrRECvq1KNkHKfa8-123" target="OverbrRECvq1KNkHKfa8-125" edge="1">
          <mxGeometry relative="1" as="geometry" />
        </mxCell>
        <mxCell id="OverbrRECvq1KNkHKfa8-123" value="&lt;font style=&quot;font-size: 8px;&quot;&gt;Si&lt;br&gt;&lt;/font&gt;&lt;div&gt;&lt;font face=&quot;arial, sans-serif&quot; color=&quot;#202124&quot;&gt;&lt;span style=&quot;font-size: 8px;&quot;&gt;numEuler = -1&lt;/span&gt;&lt;/font&gt;&lt;/div&gt;" style="rhombus;whiteSpace=wrap;html=1;fontSize=9;fontFamily=Verdana;rounded=1;fillColor=#f8cecc;strokeColor=#b85450;" parent="WIyWlLk6GJQsqaUBKTNV-1" vertex="1">
          <mxGeometry x="1489.8" y="2457.5" width="80" height="80" as="geometry" />
        </mxCell>
        <mxCell id="J1m_QP4aasbsXkZzkoLg-1" style="edgeStyle=orthogonalEdgeStyle;rounded=0;orthogonalLoop=1;jettySize=auto;html=1;exitX=0.5;exitY=1;exitDx=0;exitDy=0;entryX=1;entryY=0.5;entryDx=0;entryDy=0;fillColor=#f8cecc;strokeColor=#b85450;" parent="WIyWlLk6GJQsqaUBKTNV-1" source="OverbrRECvq1KNkHKfa8-125" target="OverbrRECvq1KNkHKfa8-138" edge="1">
          <mxGeometry relative="1" as="geometry" />
        </mxCell>
        <mxCell id="OverbrRECvq1KNkHKfa8-125" value="La carta es una &lt;b&gt;&#39;Q&#39;&lt;/b&gt;" style="whiteSpace=wrap;html=1;fontSize=9;fontFamily=Verdana;rounded=1;fillColor=#f8cecc;strokeColor=#b85450;" parent="WIyWlLk6GJQsqaUBKTNV-1" vertex="1">
          <mxGeometry x="1469.8" y="2577.5" width="120" height="60" as="geometry" />
        </mxCell>
        <mxCell id="OverbrRECvq1KNkHKfa8-130" value="" style="edgeStyle=orthogonalEdgeStyle;rounded=0;orthogonalLoop=1;jettySize=auto;html=1;fontFamily=Verdana;fontSize=8;fillColor=#f8cecc;strokeColor=#b85450;" parent="WIyWlLk6GJQsqaUBKTNV-1" source="OverbrRECvq1KNkHKfa8-127" target="OverbrRECvq1KNkHKfa8-129" edge="1">
          <mxGeometry relative="1" as="geometry" />
        </mxCell>
        <mxCell id="OverbrRECvq1KNkHKfa8-127" value="&lt;span style=&quot;font-size: 8px;&quot;&gt;Si&lt;br&gt;1500&lt;/span&gt;&lt;span style=&quot;font-size: 8px; color: rgb(32, 33, 36); font-family: arial, sans-serif; text-align: left;&quot;&gt;≤&lt;/span&gt;&lt;b style=&quot;font-size: 8px;&quot;&gt;area2&lt;/b&gt;&lt;span style=&quot;font-size: 8px; color: rgb(32, 33, 36); font-family: arial, sans-serif; text-align: left;&quot;&gt;≤&lt;/span&gt;&lt;span style=&quot;font-size: 8px;&quot;&gt;1900&lt;/span&gt;" style="rhombus;whiteSpace=wrap;html=1;fontSize=9;fontFamily=Verdana;rounded=1;fillColor=#f8cecc;strokeColor=#b85450;" parent="WIyWlLk6GJQsqaUBKTNV-1" vertex="1">
          <mxGeometry x="1204.8" y="2452.5" width="90" height="90" as="geometry" />
        </mxCell>
        <mxCell id="J1m_QP4aasbsXkZzkoLg-0" style="edgeStyle=orthogonalEdgeStyle;rounded=0;orthogonalLoop=1;jettySize=auto;html=1;entryX=0;entryY=0.5;entryDx=0;entryDy=0;exitX=0.5;exitY=1;exitDx=0;exitDy=0;fillColor=#f8cecc;strokeColor=#b85450;" parent="WIyWlLk6GJQsqaUBKTNV-1" source="OverbrRECvq1KNkHKfa8-129" target="OverbrRECvq1KNkHKfa8-138" edge="1">
          <mxGeometry relative="1" as="geometry" />
        </mxCell>
        <mxCell id="OverbrRECvq1KNkHKfa8-129" value="La carta es una &lt;b&gt;&#39;J&#39;&lt;/b&gt;" style="whiteSpace=wrap;html=1;fontSize=9;fontFamily=Verdana;rounded=1;fillColor=#f8cecc;strokeColor=#b85450;" parent="WIyWlLk6GJQsqaUBKTNV-1" vertex="1">
          <mxGeometry x="1189.8" y="2577.5" width="120" height="60" as="geometry" />
        </mxCell>
        <mxCell id="OverbrRECvq1KNkHKfa8-134" value="" style="edgeStyle=orthogonalEdgeStyle;rounded=0;orthogonalLoop=1;jettySize=auto;html=1;fontFamily=Verdana;fontSize=8;fillColor=#f8cecc;strokeColor=#b85450;" parent="WIyWlLk6GJQsqaUBKTNV-1" source="OverbrRECvq1KNkHKfa8-131" target="OverbrRECvq1KNkHKfa8-133" edge="1">
          <mxGeometry relative="1" as="geometry" />
        </mxCell>
        <mxCell id="OverbrRECvq1KNkHKfa8-131" value="&lt;span style=&quot;font-size: 8px;&quot;&gt;Si&lt;br&gt;2700&lt;/span&gt;&lt;span style=&quot;font-size: 8px; color: rgb(32, 33, 36); font-family: arial, sans-serif; text-align: left;&quot;&gt;≤&lt;/span&gt;&lt;b style=&quot;font-size: 8px;&quot;&gt;area2&lt;/b&gt;&lt;span style=&quot;font-size: 8px; color: rgb(32, 33, 36); font-family: arial, sans-serif; text-align: left;&quot;&gt;≤&lt;/span&gt;&lt;span style=&quot;font-size: 8px;&quot;&gt;3000&lt;/span&gt;" style="rhombus;whiteSpace=wrap;html=1;fontSize=9;fontFamily=Verdana;rounded=1;fillColor=#f8cecc;strokeColor=#b85450;" parent="WIyWlLk6GJQsqaUBKTNV-1" vertex="1">
          <mxGeometry x="1342.3" y="2547.5" width="95" height="100" as="geometry" />
        </mxCell>
        <mxCell id="OverbrRECvq1KNkHKfa8-139" value="" style="edgeStyle=orthogonalEdgeStyle;rounded=0;orthogonalLoop=1;jettySize=auto;html=1;fontFamily=Verdana;fontSize=8;fillColor=#f8cecc;strokeColor=#b85450;" parent="WIyWlLk6GJQsqaUBKTNV-1" source="OverbrRECvq1KNkHKfa8-133" target="OverbrRECvq1KNkHKfa8-138" edge="1">
          <mxGeometry relative="1" as="geometry" />
        </mxCell>
        <mxCell id="OverbrRECvq1KNkHKfa8-133" value="La carta es una &lt;b&gt;&#39;K&#39;&lt;/b&gt;" style="whiteSpace=wrap;html=1;fontSize=9;fontFamily=Verdana;rounded=1;fillColor=#f8cecc;strokeColor=#b85450;" parent="WIyWlLk6GJQsqaUBKTNV-1" vertex="1">
          <mxGeometry x="1329.8" y="2667.5" width="120" height="60" as="geometry" />
        </mxCell>
        <mxCell id="OverbrRECvq1KNkHKfa8-146" style="edgeStyle=orthogonalEdgeStyle;rounded=0;orthogonalLoop=1;jettySize=auto;html=1;exitX=0.5;exitY=1;exitDx=0;exitDy=0;entryX=0.501;entryY=-0.017;entryDx=0;entryDy=0;entryPerimeter=0;fontFamily=Verdana;fontSize=8;" parent="WIyWlLk6GJQsqaUBKTNV-1" source="OverbrRECvq1KNkHKfa8-135" target="lt5BsjwWGhVhC6ZBDZQn-42" edge="1">
          <mxGeometry relative="1" as="geometry">
            <mxPoint x="1389.0800000000004" y="3026.1" as="targetPoint" />
          </mxGeometry>
        </mxCell>
        <mxCell id="OverbrRECvq1KNkHKfa8-135" value="Concatenar resultado en variable &#39;Resultado&#39;" style="shape=hexagon;perimeter=hexagonPerimeter2;whiteSpace=wrap;html=1;fixedSize=1;fontSize=9;fontFamily=Verdana;rounded=1;fillColor=#e1d5e7;strokeColor=#9673a6;" parent="WIyWlLk6GJQsqaUBKTNV-1" vertex="1">
          <mxGeometry x="1329.8" y="2867.5" width="120" height="80" as="geometry" />
        </mxCell>
        <mxCell id="OverbrRECvq1KNkHKfa8-140" style="edgeStyle=orthogonalEdgeStyle;rounded=0;orthogonalLoop=1;jettySize=auto;html=1;exitX=0.5;exitY=1;exitDx=0;exitDy=0;entryX=0.5;entryY=0;entryDx=0;entryDy=0;fontFamily=Verdana;fontSize=8;" parent="WIyWlLk6GJQsqaUBKTNV-1" source="OverbrRECvq1KNkHKfa8-138" target="OverbrRECvq1KNkHKfa8-135" edge="1">
          <mxGeometry relative="1" as="geometry" />
        </mxCell>
        <mxCell id="OverbrRECvq1KNkHKfa8-141" value="Letra de la carta" style="edgeLabel;html=1;align=center;verticalAlign=middle;resizable=0;points=[];fontSize=8;fontFamily=Verdana;" parent="OverbrRECvq1KNkHKfa8-140" vertex="1" connectable="0">
          <mxGeometry x="-0.15" y="2" relative="1" as="geometry">
            <mxPoint as="offset" />
          </mxGeometry>
        </mxCell>
        <mxCell id="OverbrRECvq1KNkHKfa8-138" value="Resultado almacenado en la variable: &#39;&lt;b&gt;lcarta&lt;/b&gt;&#39;" style="whiteSpace=wrap;html=1;fontSize=9;fontFamily=Verdana;rounded=1;fillColor=#f8cecc;strokeColor=#b85450;" parent="WIyWlLk6GJQsqaUBKTNV-1" vertex="1">
          <mxGeometry x="1329.8" y="2757.5" width="120" height="60" as="geometry" />
        </mxCell>
        <mxCell id="OverbrRECvq1KNkHKfa8-150" value="&lt;h1&gt;Sección 5&lt;/h1&gt;&lt;p&gt;Proceso de identificación del número de la carta&lt;/p&gt;" style="text;html=1;strokeColor=#b85450;fillColor=#f8cecc;spacing=5;spacingTop=-20;whiteSpace=wrap;overflow=hidden;rounded=0;fontFamily=Verdana;fontSize=10;" parent="WIyWlLk6GJQsqaUBKTNV-1" vertex="1">
          <mxGeometry x="1690" y="2437.5" width="230" height="75" as="geometry" />
        </mxCell>
        <mxCell id="OverbrRECvq1KNkHKfa8-151" value="&lt;h1&gt;Sección 6&lt;/h1&gt;&lt;p&gt;Concatenación de resultados: Número y Símbolo de la carta. Impresión de resultado.&lt;/p&gt;" style="text;html=1;strokeColor=#9673a6;fillColor=#e1d5e7;spacing=5;spacingTop=-20;whiteSpace=wrap;overflow=hidden;rounded=0;fontFamily=Verdana;fontSize=10;" parent="WIyWlLk6GJQsqaUBKTNV-1" vertex="1">
          <mxGeometry x="1690" y="2930" width="230" height="90" as="geometry" />
        </mxCell>
        <mxCell id="HIEnJzt94IWlRPfUagvC-0" value="&lt;div style=&quot;&quot;&gt;&lt;span style=&quot;font-size: 52px; background-color: initial;&quot;&gt;DIAGRAMA DE PROCESO&lt;/span&gt;&lt;/div&gt;&lt;div style=&quot;&quot;&gt;&lt;p style=&quot;margin: 0cm; font-family: Calibri, sans-serif;&quot; class=&quot;MsoNormal&quot;&gt;&lt;b style=&quot;&quot;&gt;&lt;span style=&quot;font-family: &amp;quot;Avenir Book&amp;quot;;&quot; lang=&quot;ES&quot;&gt;&lt;font style=&quot;font-size: 22px;&quot;&gt;Sistema de Reconocimiento de Cartas de Juego&lt;/font&gt;&lt;span style=&quot;font-size: 10pt;&quot;&gt;&lt;/span&gt;&lt;/span&gt;&lt;/b&gt;&lt;/p&gt;&lt;/div&gt;" style="text;html=1;strokeColor=none;fillColor=none;align=left;verticalAlign=middle;whiteSpace=wrap;rounded=0;" parent="WIyWlLk6GJQsqaUBKTNV-1" vertex="1">
          <mxGeometry x="250" y="210" width="900" height="220" as="geometry" />
        </mxCell>
        <mxCell id="lt5BsjwWGhVhC6ZBDZQn-6" style="edgeStyle=orthogonalEdgeStyle;rounded=0;orthogonalLoop=1;jettySize=auto;html=1;exitX=0.5;exitY=1;exitDx=0;exitDy=0;entryX=0.5;entryY=0;entryDx=0;entryDy=0;" edge="1" parent="WIyWlLk6GJQsqaUBKTNV-1" source="lt5BsjwWGhVhC6ZBDZQn-0" target="OverbrRECvq1KNkHKfa8-2">
          <mxGeometry relative="1" as="geometry" />
        </mxCell>
        <mxCell id="lt5BsjwWGhVhC6ZBDZQn-0" value="Ejecución de Ciclo de Captura y Reconocimiento" style="whiteSpace=wrap;html=1;fontSize=10;fillColor=#dae8fc;strokeColor=#6c8ebf;rounded=1;" vertex="1" parent="WIyWlLk6GJQsqaUBKTNV-1">
          <mxGeometry x="1084.8" y="600" width="120" height="60" as="geometry" />
        </mxCell>
        <mxCell id="lt5BsjwWGhVhC6ZBDZQn-10" value="" style="edgeStyle=orthogonalEdgeStyle;rounded=0;orthogonalLoop=1;jettySize=auto;html=1;" edge="1" parent="WIyWlLk6GJQsqaUBKTNV-1" source="lt5BsjwWGhVhC6ZBDZQn-7" target="lt5BsjwWGhVhC6ZBDZQn-9">
          <mxGeometry relative="1" as="geometry" />
        </mxCell>
        <mxCell id="lt5BsjwWGhVhC6ZBDZQn-7" value="Almacenamiento de resultados en estructura &#39;&lt;b&gt;resultados&lt;/b&gt;&#39;" style="whiteSpace=wrap;html=1;rounded=1;fontSize=10;fillColor=#dae8fc;strokeColor=#6c8ebf;" vertex="1" parent="WIyWlLk6GJQsqaUBKTNV-1">
          <mxGeometry x="1064.8" y="790" width="160" height="60" as="geometry" />
        </mxCell>
        <mxCell id="lt5BsjwWGhVhC6ZBDZQn-9" value="Muestra resultados y tiempo promedio de procesamiento" style="whiteSpace=wrap;html=1;fontSize=10;fillColor=#dae8fc;strokeColor=#6c8ebf;rounded=1;" vertex="1" parent="WIyWlLk6GJQsqaUBKTNV-1">
          <mxGeometry x="1064.8" y="890" width="160" height="60" as="geometry" />
        </mxCell>
        <mxCell id="lt5BsjwWGhVhC6ZBDZQn-17" style="edgeStyle=orthogonalEdgeStyle;rounded=0;orthogonalLoop=1;jettySize=auto;html=1;exitX=1;exitY=0.5;exitDx=0;exitDy=0;entryX=0;entryY=0.5;entryDx=0;entryDy=0;fillColor=#d5e8d4;strokeColor=#82b366;" edge="1" parent="WIyWlLk6GJQsqaUBKTNV-1" source="lt5BsjwWGhVhC6ZBDZQn-16" target="OverbrRECvq1KNkHKfa8-6">
          <mxGeometry relative="1" as="geometry" />
        </mxCell>
        <mxCell id="lt5BsjwWGhVhC6ZBDZQn-16" value="Ejecución de &#39;Script0&#39; y captura de imagen. Almacenamiento en&lt;br&gt;&#39;frame&#39;" style="whiteSpace=wrap;html=1;rounded=1;fontSize=10;fillColor=#d5e8d4;strokeColor=#82b366;" vertex="1" parent="WIyWlLk6GJQsqaUBKTNV-1">
          <mxGeometry x="737.5" y="1080" width="120" height="60" as="geometry" />
        </mxCell>
        <mxCell id="lt5BsjwWGhVhC6ZBDZQn-23" value="" style="edgeStyle=orthogonalEdgeStyle;rounded=0;orthogonalLoop=1;jettySize=auto;html=1;fillColor=#d5e8d4;strokeColor=#82b366;" edge="1" parent="WIyWlLk6GJQsqaUBKTNV-1" source="lt5BsjwWGhVhC6ZBDZQn-20" target="lt5BsjwWGhVhC6ZBDZQn-22">
          <mxGeometry relative="1" as="geometry" />
        </mxCell>
        <mxCell id="lt5BsjwWGhVhC6ZBDZQn-27" value="" style="edgeStyle=orthogonalEdgeStyle;rounded=0;orthogonalLoop=1;jettySize=auto;html=1;entryX=0.5;entryY=0;entryDx=0;entryDy=0;" edge="1" parent="WIyWlLk6GJQsqaUBKTNV-1" source="lt5BsjwWGhVhC6ZBDZQn-20" target="lt5BsjwWGhVhC6ZBDZQn-31">
          <mxGeometry relative="1" as="geometry">
            <mxPoint x="1490.3999999999996" y="1360" as="targetPoint" />
          </mxGeometry>
        </mxCell>
        <mxCell id="lt5BsjwWGhVhC6ZBDZQn-20" value="Eliminación de puntos sueltos en la imagen&lt;br&gt;&#39;&lt;b&gt;bwareaopen&lt;/b&gt;&#39;" style="whiteSpace=wrap;html=1;fontSize=10;fillColor=#d5e8d4;strokeColor=#82b366;rounded=1;" vertex="1" parent="WIyWlLk6GJQsqaUBKTNV-1">
          <mxGeometry x="1430.3999999999999" y="1220" width="120" height="60" as="geometry" />
        </mxCell>
        <mxCell id="lt5BsjwWGhVhC6ZBDZQn-38" style="edgeStyle=orthogonalEdgeStyle;rounded=0;orthogonalLoop=1;jettySize=auto;html=1;exitX=0;exitY=0.5;exitDx=0;exitDy=0;entryX=0.5;entryY=0;entryDx=0;entryDy=0;" edge="1" parent="WIyWlLk6GJQsqaUBKTNV-1" source="lt5BsjwWGhVhC6ZBDZQn-22" target="lt5BsjwWGhVhC6ZBDZQn-36">
          <mxGeometry relative="1" as="geometry" />
        </mxCell>
        <mxCell id="lt5BsjwWGhVhC6ZBDZQn-22" value="Se realiza un nuevo complemento de la imagen" style="whiteSpace=wrap;html=1;fontSize=10;fillColor=#d5e8d4;strokeColor=#82b366;rounded=1;" vertex="1" parent="WIyWlLk6GJQsqaUBKTNV-1">
          <mxGeometry x="1084.7999999999997" y="1220" width="120" height="60" as="geometry" />
        </mxCell>
        <mxCell id="lt5BsjwWGhVhC6ZBDZQn-35" style="edgeStyle=orthogonalEdgeStyle;rounded=0;orthogonalLoop=1;jettySize=auto;html=1;exitX=0;exitY=0.5;exitDx=0;exitDy=0;entryX=1;entryY=0.5;entryDx=0;entryDy=0;" edge="1" parent="WIyWlLk6GJQsqaUBKTNV-1" source="lt5BsjwWGhVhC6ZBDZQn-29" target="lt5BsjwWGhVhC6ZBDZQn-32">
          <mxGeometry relative="1" as="geometry" />
        </mxCell>
        <mxCell id="lt5BsjwWGhVhC6ZBDZQn-29" value="&lt;b&gt;Conteo&lt;/b&gt; &lt;b&gt;de&lt;/b&gt; &lt;b&gt;objetos&lt;/b&gt; dentro de la carta." style="whiteSpace=wrap;html=1;fontSize=10;rounded=1;fillColor=#ffe6cc;strokeColor=#d79b00;" vertex="1" parent="WIyWlLk6GJQsqaUBKTNV-1">
          <mxGeometry x="1250" y="1395" width="120" height="60" as="geometry" />
        </mxCell>
        <mxCell id="lt5BsjwWGhVhC6ZBDZQn-34" style="edgeStyle=orthogonalEdgeStyle;rounded=0;orthogonalLoop=1;jettySize=auto;html=1;exitX=0;exitY=0.5;exitDx=0;exitDy=0;entryX=1;entryY=0.5;entryDx=0;entryDy=0;" edge="1" parent="WIyWlLk6GJQsqaUBKTNV-1" source="lt5BsjwWGhVhC6ZBDZQn-31" target="lt5BsjwWGhVhC6ZBDZQn-29">
          <mxGeometry relative="1" as="geometry" />
        </mxCell>
        <mxCell id="lt5BsjwWGhVhC6ZBDZQn-31" value="&lt;b&gt;Generación&lt;/b&gt; &lt;b&gt;de&lt;/b&gt; &lt;b&gt;propiedades&lt;/b&gt; de cada uno de los &lt;b&gt;elementos&lt;/b&gt; encontrados" style="whiteSpace=wrap;html=1;fontSize=10;rounded=1;fillColor=#ffe6cc;strokeColor=#d79b00;" vertex="1" parent="WIyWlLk6GJQsqaUBKTNV-1">
          <mxGeometry x="1410" y="1390" width="160" height="70" as="geometry" />
        </mxCell>
        <mxCell id="lt5BsjwWGhVhC6ZBDZQn-41" style="edgeStyle=orthogonalEdgeStyle;rounded=0;orthogonalLoop=1;jettySize=auto;html=1;entryX=0.5;entryY=0;entryDx=0;entryDy=0;" edge="1" parent="WIyWlLk6GJQsqaUBKTNV-1" source="lt5BsjwWGhVhC6ZBDZQn-32" target="OverbrRECvq1KNkHKfa8-43">
          <mxGeometry relative="1" as="geometry" />
        </mxCell>
        <mxCell id="lt5BsjwWGhVhC6ZBDZQn-32" value="Ciclo: &lt;b&gt;Generación&lt;/b&gt; de &lt;b&gt;BoundingBoxes&lt;/b&gt; de los &lt;b&gt;elementos&lt;/b&gt;&amp;nbsp;encontrados." style="whiteSpace=wrap;html=1;fontSize=10;rounded=1;fillColor=#ffe6cc;strokeColor=#d79b00;" vertex="1" parent="WIyWlLk6GJQsqaUBKTNV-1">
          <mxGeometry x="1084.8" y="1395" width="120" height="60" as="geometry" />
        </mxCell>
        <mxCell id="lt5BsjwWGhVhC6ZBDZQn-40" value="" style="edgeStyle=orthogonalEdgeStyle;rounded=0;orthogonalLoop=1;jettySize=auto;html=1;" edge="1" parent="WIyWlLk6GJQsqaUBKTNV-1" source="lt5BsjwWGhVhC6ZBDZQn-36" target="lt5BsjwWGhVhC6ZBDZQn-39">
          <mxGeometry relative="1" as="geometry" />
        </mxCell>
        <mxCell id="lt5BsjwWGhVhC6ZBDZQn-36" value="&lt;b&gt;Generación&lt;/b&gt; &lt;b&gt;de&lt;/b&gt; &lt;b&gt;propiedades&lt;/b&gt;&amp;nbsp;de la carta completa.&amp;nbsp;&lt;br&gt;&#39;&lt;b&gt;stats2&lt;/b&gt;&#39;" style="whiteSpace=wrap;html=1;fontSize=10;rounded=1;fillColor=#ffe6cc;strokeColor=#d79b00;" vertex="1" parent="WIyWlLk6GJQsqaUBKTNV-1">
          <mxGeometry x="737.5" y="1390" width="160" height="70" as="geometry" />
        </mxCell>
        <mxCell id="lt5BsjwWGhVhC6ZBDZQn-39" value="Se toman las coordenadas del &lt;b&gt;BoundingBox&lt;/b&gt; de la &lt;b&gt;carta&lt;/b&gt; y se &lt;b&gt;recorta&lt;/b&gt; la imagen original. Se almacena en&lt;br&gt;&#39;&lt;b&gt;carta&lt;/b&gt;&#39;" style="whiteSpace=wrap;html=1;fontSize=10;fillColor=#ffe6cc;strokeColor=#d79b00;rounded=1;" vertex="1" parent="WIyWlLk6GJQsqaUBKTNV-1">
          <mxGeometry x="737.5" y="1520" width="160" height="85" as="geometry" />
        </mxCell>
        <mxCell id="lt5BsjwWGhVhC6ZBDZQn-60" style="edgeStyle=orthogonalEdgeStyle;rounded=0;orthogonalLoop=1;jettySize=auto;html=1;exitX=0.5;exitY=1;exitDx=0;exitDy=0;entryX=1;entryY=0.5;entryDx=0;entryDy=0;" edge="1" parent="WIyWlLk6GJQsqaUBKTNV-1" source="lt5BsjwWGhVhC6ZBDZQn-42" target="lt5BsjwWGhVhC6ZBDZQn-52">
          <mxGeometry relative="1" as="geometry">
            <Array as="points">
              <mxPoint x="1390" y="3090" />
              <mxPoint x="1530" y="3090" />
              <mxPoint x="1530" y="3330" />
            </Array>
          </mxGeometry>
        </mxCell>
        <mxCell id="lt5BsjwWGhVhC6ZBDZQn-42" value="Resultado = [ l&lt;b&gt;carta&lt;/b&gt;, &#39; de &#39;, &#39;&lt;b&gt;simbolo&lt;/b&gt;]&lt;br&gt;&lt;br&gt;Ejemplo:&lt;br&gt;&#39;&lt;b&gt;Q&lt;/b&gt;&amp;nbsp;de &lt;b&gt;Tréboles&lt;/b&gt;&#39;" style="whiteSpace=wrap;html=1;fontSize=9;fontFamily=Verdana;rounded=1;fillColor=#e1d5e7;strokeColor=#9673a6;" vertex="1" parent="WIyWlLk6GJQsqaUBKTNV-1">
          <mxGeometry x="1289.8" y="3000" width="200" height="60" as="geometry" />
        </mxCell>
        <mxCell id="lt5BsjwWGhVhC6ZBDZQn-43" value="" style="endArrow=none;html=1;rounded=0;" edge="1" parent="WIyWlLk6GJQsqaUBKTNV-1">
          <mxGeometry width="50" height="50" relative="1" as="geometry">
            <mxPoint x="1620" y="3100" as="sourcePoint" />
            <mxPoint x="1680" y="3100" as="targetPoint" />
          </mxGeometry>
        </mxCell>
        <mxCell id="lt5BsjwWGhVhC6ZBDZQn-54" style="edgeStyle=orthogonalEdgeStyle;rounded=0;orthogonalLoop=1;jettySize=auto;html=1;exitX=0;exitY=0.5;exitDx=0;exitDy=0;" edge="1" parent="WIyWlLk6GJQsqaUBKTNV-1" source="lt5BsjwWGhVhC6ZBDZQn-44" target="lt5BsjwWGhVhC6ZBDZQn-49">
          <mxGeometry relative="1" as="geometry" />
        </mxCell>
        <mxCell id="lt5BsjwWGhVhC6ZBDZQn-55" style="edgeStyle=orthogonalEdgeStyle;rounded=0;orthogonalLoop=1;jettySize=auto;html=1;exitX=0;exitY=0.75;exitDx=0;exitDy=0;entryX=0.5;entryY=0;entryDx=0;entryDy=0;" edge="1" parent="WIyWlLk6GJQsqaUBKTNV-1" source="lt5BsjwWGhVhC6ZBDZQn-44" target="lt5BsjwWGhVhC6ZBDZQn-50">
          <mxGeometry relative="1" as="geometry" />
        </mxCell>
        <mxCell id="lt5BsjwWGhVhC6ZBDZQn-56" style="edgeStyle=orthogonalEdgeStyle;rounded=0;orthogonalLoop=1;jettySize=auto;html=1;exitX=1;exitY=0.75;exitDx=0;exitDy=0;entryX=0.5;entryY=0;entryDx=0;entryDy=0;" edge="1" parent="WIyWlLk6GJQsqaUBKTNV-1" source="lt5BsjwWGhVhC6ZBDZQn-44" target="lt5BsjwWGhVhC6ZBDZQn-51">
          <mxGeometry relative="1" as="geometry" />
        </mxCell>
        <mxCell id="lt5BsjwWGhVhC6ZBDZQn-57" style="edgeStyle=orthogonalEdgeStyle;rounded=0;orthogonalLoop=1;jettySize=auto;html=1;exitX=1;exitY=0.5;exitDx=0;exitDy=0;" edge="1" parent="WIyWlLk6GJQsqaUBKTNV-1" source="lt5BsjwWGhVhC6ZBDZQn-44" target="lt5BsjwWGhVhC6ZBDZQn-52">
          <mxGeometry relative="1" as="geometry" />
        </mxCell>
        <mxCell id="lt5BsjwWGhVhC6ZBDZQn-59" style="edgeStyle=orthogonalEdgeStyle;rounded=0;orthogonalLoop=1;jettySize=auto;html=1;" edge="1" parent="WIyWlLk6GJQsqaUBKTNV-1" source="lt5BsjwWGhVhC6ZBDZQn-44" target="lt5BsjwWGhVhC6ZBDZQn-58">
          <mxGeometry relative="1" as="geometry" />
        </mxCell>
        <mxCell id="lt5BsjwWGhVhC6ZBDZQn-44" value="Se presentan los resultados.&lt;br&gt;Se muestran 4 imagenes:" style="rounded=1;whiteSpace=wrap;html=1;fillColor=#f5f5f5;fontColor=#333333;strokeColor=#666666;" vertex="1" parent="WIyWlLk6GJQsqaUBKTNV-1">
          <mxGeometry x="1044.8" y="3170" width="200" height="90" as="geometry" />
        </mxCell>
        <mxCell id="lt5BsjwWGhVhC6ZBDZQn-49" value="Imagen Original&lt;br&gt;&#39;&lt;b&gt;frame&lt;/b&gt;&#39;" style="rounded=1;whiteSpace=wrap;html=1;fillColor=#d5e8d4;strokeColor=#82b366;" vertex="1" parent="WIyWlLk6GJQsqaUBKTNV-1">
          <mxGeometry x="790" y="3300" width="120" height="60" as="geometry" />
        </mxCell>
        <mxCell id="lt5BsjwWGhVhC6ZBDZQn-50" value="Imagen en Escala de Grises&lt;br&gt;&#39;&lt;b&gt;ImgGray&lt;/b&gt;&#39;" style="rounded=1;whiteSpace=wrap;html=1;fillColor=#d5e8d4;strokeColor=#82b366;" vertex="1" parent="WIyWlLk6GJQsqaUBKTNV-1">
          <mxGeometry x="964.8" y="3300" width="120" height="60" as="geometry" />
        </mxCell>
        <mxCell id="lt5BsjwWGhVhC6ZBDZQn-51" value="Imagen Procesada&lt;br&gt;&#39;&lt;b&gt;BW2&lt;/b&gt;&#39;" style="rounded=1;whiteSpace=wrap;html=1;fillColor=#d5e8d4;strokeColor=#82b366;" vertex="1" parent="WIyWlLk6GJQsqaUBKTNV-1">
          <mxGeometry x="1204.8" y="3300" width="120" height="60" as="geometry" />
        </mxCell>
        <mxCell id="lt5BsjwWGhVhC6ZBDZQn-52" value="&lt;b&gt;Carta&lt;/b&gt; y &lt;b&gt;Resultado&lt;/b&gt;" style="rounded=1;whiteSpace=wrap;html=1;fillColor=#e1d5e7;strokeColor=#9673a6;" vertex="1" parent="WIyWlLk6GJQsqaUBKTNV-1">
          <mxGeometry x="1370" y="3300" width="120" height="60" as="geometry" />
        </mxCell>
        <mxCell id="lt5BsjwWGhVhC6ZBDZQn-72" style="edgeStyle=orthogonalEdgeStyle;rounded=0;orthogonalLoop=1;jettySize=auto;html=1;exitX=0;exitY=0.5;exitDx=0;exitDy=0;entryX=0;entryY=0.5;entryDx=0;entryDy=0;" edge="1" parent="WIyWlLk6GJQsqaUBKTNV-1" source="lt5BsjwWGhVhC6ZBDZQn-58" target="lt5BsjwWGhVhC6ZBDZQn-9">
          <mxGeometry relative="1" as="geometry">
            <mxPoint x="590" y="990" as="targetPoint" />
            <Array as="points">
              <mxPoint x="590" y="3455" />
              <mxPoint x="590" y="920" />
            </Array>
          </mxGeometry>
        </mxCell>
        <mxCell id="lt5BsjwWGhVhC6ZBDZQn-73" value="Tiempo de&lt;br&gt;Procesamiento" style="edgeLabel;html=1;align=center;verticalAlign=middle;resizable=0;points=[];" vertex="1" connectable="0" parent="lt5BsjwWGhVhC6ZBDZQn-72">
          <mxGeometry x="0.3223" y="6" relative="1" as="geometry">
            <mxPoint as="offset" />
          </mxGeometry>
        </mxCell>
        <mxCell id="lt5BsjwWGhVhC6ZBDZQn-58" value="Finaliza el Temporizador. Resultado almacenado en &#39;&lt;b&gt;Tiempo&lt;/b&gt;&#39;" style="rounded=1;whiteSpace=wrap;html=1;fillColor=#f5f5f5;fontColor=#333333;strokeColor=#666666;" vertex="1" parent="WIyWlLk6GJQsqaUBKTNV-1">
          <mxGeometry x="1045.2" y="3410" width="200" height="90" as="geometry" />
        </mxCell>
        <mxCell id="lt5BsjwWGhVhC6ZBDZQn-61" value="" style="endArrow=none;html=1;rounded=0;" edge="1" parent="WIyWlLk6GJQsqaUBKTNV-1">
          <mxGeometry width="50" height="50" relative="1" as="geometry">
            <mxPoint x="1624" y="3531" as="sourcePoint" />
            <mxPoint x="1684" y="3531" as="targetPoint" />
          </mxGeometry>
        </mxCell>
        <mxCell id="lt5BsjwWGhVhC6ZBDZQn-63" value="" style="endArrow=none;html=1;rounded=0;" edge="1" parent="WIyWlLk6GJQsqaUBKTNV-1">
          <mxGeometry width="50" height="50" relative="1" as="geometry">
            <mxPoint x="1625" y="2840" as="sourcePoint" />
            <mxPoint x="1685" y="2840" as="targetPoint" />
          </mxGeometry>
        </mxCell>
        <mxCell id="lt5BsjwWGhVhC6ZBDZQn-64" value="" style="endArrow=none;html=1;rounded=0;" edge="1" parent="WIyWlLk6GJQsqaUBKTNV-1">
          <mxGeometry width="50" height="50" relative="1" as="geometry">
            <mxPoint x="1623" y="2069.96" as="sourcePoint" />
            <mxPoint x="1683" y="2069.96" as="targetPoint" />
          </mxGeometry>
        </mxCell>
        <mxCell id="lt5BsjwWGhVhC6ZBDZQn-66" value="" style="endArrow=none;html=1;rounded=0;" edge="1" parent="WIyWlLk6GJQsqaUBKTNV-1">
          <mxGeometry width="50" height="50" relative="1" as="geometry">
            <mxPoint x="1624" y="1480" as="sourcePoint" />
            <mxPoint x="1684" y="1480" as="targetPoint" />
          </mxGeometry>
        </mxCell>
        <mxCell id="lt5BsjwWGhVhC6ZBDZQn-67" value="" style="endArrow=none;html=1;rounded=0;" edge="1" parent="WIyWlLk6GJQsqaUBKTNV-1">
          <mxGeometry width="50" height="50" relative="1" as="geometry">
            <mxPoint x="1623.6" y="1320" as="sourcePoint" />
            <mxPoint x="1683.6" y="1320" as="targetPoint" />
          </mxGeometry>
        </mxCell>
        <mxCell id="lt5BsjwWGhVhC6ZBDZQn-68" value="" style="endArrow=none;html=1;rounded=0;" edge="1" parent="WIyWlLk6GJQsqaUBKTNV-1">
          <mxGeometry width="50" height="50" relative="1" as="geometry">
            <mxPoint x="1622" y="1050" as="sourcePoint" />
            <mxPoint x="1682" y="1050" as="targetPoint" />
          </mxGeometry>
        </mxCell>
        <mxCell id="lt5BsjwWGhVhC6ZBDZQn-69" value="" style="endArrow=none;html=1;rounded=0;" edge="1" parent="WIyWlLk6GJQsqaUBKTNV-1">
          <mxGeometry width="50" height="50" relative="1" as="geometry">
            <mxPoint x="1623" y="471.0000000000002" as="sourcePoint" />
            <mxPoint x="1683" y="471.0000000000002" as="targetPoint" />
          </mxGeometry>
        </mxCell>
      </root>
    </mxGraphModel>
  </diagram>
</mxfile>
